<svg width="652" height="397" viewBox="0 0 652 397" fill="none" xmlns="http://www.w3.org/2000/svg">
  <!-- Layer 1: Strokes (uniform color, drawn first so fills cover interior portions) -->
  <g stroke="#E0706A" stroke-width="8" fill="none">
    <path d="M144.5 112C222.096 112 285 174.904 285 252.5C285 281.272 276.356 308.013 261.523 330.282C236.337 368.097 193.326 393 144.5 393C66.904 393 4 330.096 4 252.5C4 174.904 66.904 112 144.5 112Z"/>
    <path d="M316 4C408.232 4 483 78.7684 483 171C483 263.232 408.232 338 316 338C223.768 338 149 263.232 149 171C149 78.7684 223.768 4 316 4Z"/>
    <path d="M517.5 132C589.573 132 648 190.427 648 262.5C648 334.573 589.573 393 517.5 393C445.427 393 387 334.573 387 262.5C387 190.427 445.427 132 517.5 132Z"/>
    <path d="M144 393H518"/>
  </g>

  <!-- Layer 2: Fills (cover interior strokes, leaving only outer outline visible) -->
  <rect x="145" y="253" width="384" height="140" fill="#E68A82"/>
  <path d="M144.5 112C222.096 112 285 174.904 285 252.5C285 281.272 276.356 308.013 261.523 330.282C236.337 368.097 193.326 393 144.5 393C66.904 393 4 330.096 4 252.5C4 174.904 66.904 112 144.5 112Z" fill="#E68A82"/>
  <path d="M316 4C408.232 4 483 78.7684 483 171C483 263.232 408.232 338 316 338C223.768 338 149 263.232 149 171C149 78.7684 223.768 4 316 4Z" fill="#E68A82"/>
  <path d="M517.5 132C589.573 132 648 190.427 648 262.5C648 334.573 589.573 393 517.5 393C445.427 393 387 334.573 387 262.5C387 190.427 445.427 132 517.5 132Z" fill="#E68A82"/>

  <!-- Layer 3: Checkmarks -->
  <path d="M296.5 65C278.487 80.4216 275.786 105.031 275 112.5C261.06 101.512 237.881 100.75 228 100.5" stroke="black" stroke-width="8"/>
  <path d="M445.5 319C454.5 320.667 476.5 327.5 492.5 341.5C505.7 323.5 528 315.333 537.5 313.5" stroke="black" stroke-width="8"/>
</svg>
